<?xml version="1.0" encoding="utf-8"?>
<!-- Generator: Adobe Illustrator 25.0.1, SVG Export Plug-In . SVG Version: 6.00 Build 0)  -->
<svg version="1.0" id="Layer_1" xmlns="http://www.w3.org/2000/svg" xmlns:xlink="http://www.w3.org/1999/xlink" x="0px" y="0px"
	 viewBox="0 0 212.6 153.9" style="enable-background:new 0 0 212.6 153.9;" xml:space="preserve">
<style type="text/css">
	.st0{fill-rule:evenodd;clip-rule:evenodd;}
</style>
<path class="st0" d="M47,77.8c-0.5,0.3-1.1,0.4-1.5,0.1c-0.6-0.3-0.9-1.1-0.9-2.1v-3.2c0-1.5-0.6-2.6-1.6-2.9
	c-1.7-0.5-3,1.6-3.5,2.4l-3,4.9v-6c0-1.4-0.5-2.2-1.3-2.4c-0.6-0.2-1.4-0.1-2.2,1.1l-6.7,10.8c-0.9-1.7-1.4-3.6-1.4-5.6
	c0-6.5,5.2-11.8,11.6-11.8S48.1,68.5,48.1,75c0,0,0,0,0,0c0,0,0,0,0,0C48.2,76.3,47.8,77.3,47,77.8L47,77.8z M50.7,75L50.7,75
	L50.7,75c0-8-6.4-14.4-14.2-14.4c-7.8,0-14.2,6.5-14.2,14.4s6.4,14.4,14.2,14.4c3.6,0,7-1.4,9.7-3.9c0.5-0.5,0.6-1.3,0.1-1.9
	c-0.5-0.5-1.3-0.6-1.8-0.1c0,0,0,0,0,0c-2.1,2-5,3.2-7.9,3.2c-3.4,0-6.5-1.5-8.7-3.9l6.1-9.8v4.5c0,2.2,0.8,2.9,1.5,3.1
	c0.7,0.2,1.8,0.1,2.9-1.8l3.3-5.4c0.1-0.2,0.2-0.3,0.3-0.5v2.7c0,2,0.8,3.6,2.2,4.4c1.3,0.7,2.9,0.7,4.2-0.2
	C50,79.1,50.8,77.2,50.7,75z M70.5,70.1c0.3,0.2,0.6,0.7,0.6,1.1c0,0.7-0.6,1.2-1.2,1.2c-0.2,0-0.3,0-0.5-0.1
	c-0.8-0.6-1.7-0.9-2.7-0.9c-2.4,0-4,1.9-4,4.3c0,2.4,1.6,4.3,4,4.3c1.2,0,2.2-0.5,3-1.2c0.2-0.1,0.5-0.2,0.7-0.2
	c0.6,0,1.1,0.5,1.1,1.2c0,0.4-0.3,0.8-0.6,1c-1.1,1-2.7,1.6-4.3,1.6c-3.6,0-6.6-3-6.6-6.7c0-3.7,3-6.7,6.6-6.7
	C68.2,68.9,69.5,69.3,70.5,70.1z M77.2,72.9c2.5,0,4.6,2.1,4.6,4.7c0,2.6-2.1,4.8-4.6,4.8c-2.6,0-4.8-2.2-4.8-4.8
	C72.4,75,74.6,72.9,77.2,72.9L77.2,72.9z M77.2,80c1.1,0,2-1,2-2.4c0-1.4-0.9-2.3-2-2.3c-1.2,0-2.2,0.9-2.2,2.3C75,79,76,80,77.2,80
	z M83.3,80.9v-6.6c0-0.7,0.6-1.3,1.3-1.3s1.3,0.6,1.3,1.3v6.6c0,0.7-0.6,1.3-1.3,1.3C83.9,82.2,83.3,81.6,83.3,80.9z M83.1,70.5
	c0-0.9,0.7-1.5,1.5-1.5c0.8,0,1.5,0.7,1.5,1.5c0,0.8-0.7,1.5-1.5,1.5C83.8,72,83.1,71.3,83.1,70.5z M90.8,77.3v3.6
	c0,0.7-0.6,1.3-1.3,1.3c-0.7,0-1.3-0.6-1.3-1.3V74c0-0.6,0.5-1,1-1c0.5,0,1,0.5,1,1c1-1,2-1.1,2.8-1.1c2.6,0,3.7,1.9,3.7,4.1v3.9
	c0,0.7-0.6,1.3-1.3,1.3c-0.7,0-1.3-0.6-1.3-1.3v-3.6c0-1.1-0.1-2.1-1.8-2.1C91.3,75.2,90.8,76.2,90.8,77.3L90.8,77.3L90.8,77.3z
	 M105.2,78.7c-0.3,0-0.5-0.1-0.7-0.3l-3-3.3v5.8c0,0.7-0.6,1.3-1.3,1.3s-1.3-0.6-1.3-1.3V69.4c0.1-0.2,0.3-0.3,0.5-0.3
	c0.2,0,0.4,0.2,0.5,0.3l4.8,5.4c0.1,0.2,0.3,0.3,0.4,0.3c0.1,0,0.3-0.1,0.4-0.3l4.8-5.4c0.1-0.1,0.3-0.3,0.5-0.3s0.4,0.1,0.5,0.3
	v11.5c0,0.7-0.6,1.3-1.3,1.3c-0.7,0-1.3-0.6-1.3-1.3v-5.8l-3,3.3C105.6,78.5,105.4,78.7,105.2,78.7L105.2,78.7z M117.5,80
	c1.2,0,2.1-1,2.1-2.4c0-1.4-1-2.3-2.1-2.3s-2,0.9-2,2.3C115.5,78.9,116.4,80,117.5,80z M120.3,81.2l0-0.3c-0.5,1-2.1,1.4-3.1,1.4
	c-2.4,0-4.2-2.2-4.2-4.8c0-2.6,1.8-4.7,4.3-4.7c0.4,0,1.9,0.1,3,1.4l0-0.3c0-0.6,0.4-1,1-1c0.5,0,1,0.5,1,1v7.2c0,0.6-0.5,1-1,1
	C120.7,82.2,120.3,81.8,120.3,81.2L120.3,81.2L120.3,81.2z M129.4,75.2h-0.3c-1.6,0.1-1.9,1-1.9,2.1v3.6c0,0.7-0.6,1.3-1.3,1.3
	c-0.7,0-1.3-0.6-1.3-1.3V74c0-0.6,0.5-1,1-1s1,0.5,1,1c1-0.9,1.7-1.1,2.5-1.1h0.3c0.6,0,1.2,0.5,1.2,1.2
	C130.5,74.7,130,75.2,129.4,75.2L129.4,75.2z M139.3,80.3c0.1,0.2,0.2,0.4,0.2,0.6c0,0.7-0.6,1.3-1.3,1.3c-0.5,0-0.8-0.3-1.1-0.7
	l-3-3.4v2.8c0,0.7-0.6,1.3-1.3,1.3c-0.7,0-1.3-0.6-1.3-1.3V70.4c0-0.7,0.6-1.3,1.3-1.3c0.7,0,1.3,0.6,1.3,1.3V77l3-3.3
	c0.3-0.3,0.7-0.7,1.1-0.7c0.6,0,1.2,0.6,1.2,1.3c0,0.2,0,0.4-0.2,0.6l-2.3,2.6L139.3,80.3C139.3,80.3,139.3,80.3,139.3,80.3z
	 M144.3,75.3c-0.7,0-1.8,0.4-1.8,1.5h3.7C146.2,75.6,145,75.3,144.3,75.3L144.3,75.3L144.3,75.3z M147.7,78.4h-5.2
	c0,1.5,1.5,1.8,2.1,1.8c0.5,0,1.2-0.1,1.7-0.3c0.2-0.1,0.4-0.2,0.7-0.2c0.6,0,1,0.5,1,1.1c0,0.4-0.3,0.7-0.6,0.9
	c-0.8,0.6-1.8,0.7-2.8,0.7c-2.6,0-4.8-1.4-4.8-4.7c0-2.6,1.3-4.8,4.4-4.8c2.5,0,4.4,1.6,4.4,4.5C148.7,77.9,148.3,78.4,147.7,78.4
	L147.7,78.4z M154.9,82.3h-0.7c-2,0-3.1-0.9-3.1-3.9v-3.2h-0.7c-0.6,0-1.2-0.6-1.2-1.2c0-0.7,0.5-1.2,1.2-1.2h0.7v-2.4
	c0-0.7,0.6-1.3,1.3-1.3c0.7,0,1.3,0.6,1.3,1.3v2.4h1.1c0.6,0,1.2,0.5,1.2,1.2c0,0.6-0.5,1.2-1.2,1.2h-1.1v2.7c0,1.8,0.1,2.1,0.9,2.1
	h0.4c0.6,0,1.1,0.5,1.1,1.2C156,81.8,155.5,82.3,154.9,82.3L154.9,82.3z M167.3,70.1c0.3,0.2,0.6,0.7,0.6,1.1c0,0.7-0.6,1.2-1.2,1.2
	c-0.2,0-0.3,0-0.5-0.1c-0.8-0.6-1.7-0.9-2.7-0.9c-2.4,0-4,1.9-4,4.3c0,2.4,1.6,4.3,4,4.3c1.2,0,2.2-0.5,3-1.2
	c0.2-0.1,0.5-0.2,0.7-0.2c0.6,0,1.1,0.5,1.1,1.2c0,0.4-0.3,0.8-0.6,1c-1.1,1-2.7,1.6-4.3,1.6c-3.6,0-6.6-3-6.6-6.7
	c0-3.7,3-6.7,6.6-6.7C165,68.9,166.3,69.3,167.3,70.1L167.3,70.1z M173.9,80c1.2,0,2.1-1,2.1-2.4c0-1.4-1-2.3-2.1-2.3
	c-1.1,0-2,0.9-2,2.3C171.8,78.9,172.7,80,173.9,80L173.9,80L173.9,80z M176.6,81.2l0-0.3c-0.5,1-2.1,1.4-3.1,1.4
	c-2.4,0-4.2-2.2-4.2-4.8c0-2.6,1.8-4.7,4.3-4.7c0.4,0,1.9,0.1,3,1.4l0-0.3c0-0.6,0.4-1,1-1c0.5,0,1,0.5,1,1v7.2c0,0.6-0.5,1-1,1
	C177,82.2,176.6,81.8,176.6,81.2z M185.7,80c1.1,0,2-1.1,2-2.4c0-1.4-0.9-2.3-2-2.3s-2.1,0.9-2.1,2.3C183.5,79,184.5,80,185.7,80z
	 M183.5,81.6v3.3c0,0.7-0.6,1.3-1.3,1.3c-0.7,0-1.3-0.6-1.3-1.3V74c0-0.6,0.5-1,1-1c0.5,0,1,0.5,1,1.1c1-1,2.1-1.2,3-1.2
	c2.5,0,4.3,2.1,4.3,4.7c0,2.6-1.8,4.8-4.2,4.8C185.3,82.3,184.2,82.1,183.5,81.6L183.5,81.6z"/>
</svg>
